<svg width="54" height="54" viewBox="0 0 54 54" fill="none" xmlns="http://www.w3.org/2000/svg">
<path d="M13.5 6.75V13.5H6.75V6.75H13.5ZM3.375 3.375V16.875H16.875V3.375H3.375Z" fill="#722845"/>
<path d="M30.375 11.8125V18.5625H23.625V11.8125H30.375ZM20.25 8.4375V21.9375H33.75V8.4375H20.25Z" fill="#722845"/>
<path d="M13.5 27V33.75H6.75V27H13.5ZM3.375 23.625V37.125H16.875V23.625H3.375Z" fill="#722845"/>
<path d="M37.125 16.875V27H27V37.125H16.875V50.625H50.625V16.875H37.125ZM30.375 30.375H37.125V37.125H30.375V30.375ZM27 47.25H20.25V40.5H27V47.25ZM37.125 47.25H30.375V40.5H37.125V47.25ZM47.25 47.25H40.5V40.5H47.25V47.25ZM47.25 37.125H40.5V30.375H47.25V37.125ZM40.5 27V20.25H47.25V27H40.5Z" fill="#722845"/>
</svg>
