<svg width="140" height="144" viewBox="0 0 140 144" fill="none" xmlns="http://www.w3.org/2000/svg">
<path d="M140 143.505V123.643C140 110.478 129.33 99.8076 116.165 99.8076H52.6045C39.4436 99.8076 28.7694 110.478 28.7694 123.643V143.505H140Z" fill="#77B255"/>
<path d="M67.0648 100.229C67.0648 103.78 76.4399 108.146 84.385 108.146C92.33 108.146 101.701 103.78 101.701 100.233V85.0698H67.0608V100.229H67.0648Z" fill="#AF7E57"/>
<path d="M67.0327 91.7553C71.8632 97.2135 77.8538 98.6913 84.3688 98.6913C90.8797 98.6913 96.8663 97.2096 101.701 91.7553V77.8872H67.0287V91.7553H67.0327Z" fill="#9B6A49"/>
<path d="M58.3409 51.8833C58.3409 57.6355 55.4251 62.2993 51.8299 62.2993C48.2348 62.2993 45.319 57.6355 45.319 51.8833C45.319 46.1311 48.2348 41.4634 51.8299 41.4634C55.4251 41.4594 58.3409 46.1271 58.3409 51.8833ZM123.447 51.8833C123.447 57.6355 120.535 62.2993 116.936 62.2993C113.34 62.2993 110.425 57.6355 110.425 51.8833C110.425 46.1311 113.337 41.4634 116.936 41.4634C120.535 41.4594 123.447 46.1271 123.447 51.8833Z" fill="#AF7E57"/>
<path d="M50.5266 55.9505C50.5266 33.7481 65.6858 15.7446 84.3844 15.7446C103.083 15.7446 118.238 33.7481 118.238 55.9505C118.238 78.153 103.083 96.1564 84.3844 96.1564C65.6897 96.1525 50.5266 78.153 50.5266 55.9505" fill="#AF7E57"/>
<path d="M84.3848 83.1307C73.4445 83.1307 70.0837 80.33 69.5236 79.762C68.5066 78.745 68.5066 77.0964 69.5236 76.0794C70.5088 75.0943 72.0898 75.0665 73.1068 75.9881C73.3134 76.1351 75.971 77.9227 84.3848 77.9227C93.1243 77.9227 95.6509 75.996 95.6747 75.9762C96.6917 74.9632 98.2847 75.0108 99.3016 76.0358C100.319 77.0527 100.263 78.749 99.246 79.762C98.6859 80.33 95.3251 83.1307 84.3848 83.1307Z" fill="#915A34"/>
<path d="M84.3848 0.494629C106.822 0.494629 120.845 18.9589 120.845 32.7555C120.845 46.5521 118.04 52.0739 115.235 46.5521L109.626 35.5164C109.626 35.5164 92.8026 35.5164 87.1934 29.9946C87.1934 29.9946 95.6072 46.5521 78.7796 29.9946C78.7796 29.9946 81.5842 41.0342 64.7566 27.2377C64.7566 27.2377 56.3428 32.7555 53.5382 46.5521C52.7595 50.3816 47.929 46.5521 47.929 32.7555C47.925 18.9589 59.1434 0.494629 84.3848 0.494629Z" fill="#60352A"/>
<path d="M68.4946 56.11C66.3097 56.11 64.5221 54.3223 64.5221 52.1374V48.1649C64.5221 45.98 66.3097 44.1924 68.4946 44.1924C70.6795 44.1924 72.4671 45.98 72.4671 48.1649V52.1374C72.4671 54.3223 70.6795 56.11 68.4946 56.11ZM100.275 56.11C98.0899 56.11 96.3023 54.3223 96.3023 52.1374V48.1649C96.3023 45.98 98.0899 44.1924 100.275 44.1924C102.46 44.1924 104.247 45.98 104.247 48.1649V52.1374C104.247 54.3223 102.46 56.11 100.275 56.11Z" fill="#60352A"/>
<path d="M87.3642 67.0345H81.4054C79.7648 67.0345 78.426 65.6957 78.426 64.0551C78.426 62.4144 79.7648 61.0757 81.4054 61.0757H87.3642C89.0049 61.0757 90.3436 62.4144 90.3436 64.0551C90.3436 65.6957 89.0049 67.0345 87.3642 67.0345Z" fill="#915A34"/>
<path d="M132.055 139.533C132.055 141.73 130.279 143.506 128.083 143.506H88.3573C86.1605 143.506 84.3848 141.73 84.3848 139.533C84.3848 137.336 86.1605 135.561 88.3573 135.561H128.083C130.279 135.561 132.055 137.336 132.055 139.533Z" fill="#E1E8ED"/>
<path d="M81.3656 87.8901H15.8944C9.84029 87.8901 2.07798 90.953 6.05051 101.917L18.2541 135.584C18.2581 135.584 19.8312 143.505 28.7694 143.505H108.22L92.3297 98.8543C90.5898 93.6026 87.4237 87.8901 81.3656 87.8901V87.8901Z" fill="#E1E8ED"/>
<path d="M77.393 87.8901H11.9219C5.86776 87.8901 -1.89455 90.953 2.07797 101.917L14.2816 135.584C14.2855 135.584 15.8587 143.505 24.7968 143.505H104.247L88.3572 98.8543C86.6172 93.6026 83.4511 87.8901 77.393 87.8901V87.8901Z" fill="#99AAB5"/>
<path d="M56.6525 116.822C58.7341 123.067 57.0458 129.256 52.8826 130.643C48.7194 132.033 43.6584 128.096 41.5768 121.851C39.4952 115.607 41.1835 109.417 45.3467 108.031C49.5099 106.645 54.5749 110.577 56.6525 116.822ZM76.4397 98.8147H12.8793C11.2347 98.8147 9.8999 97.48 9.8999 95.8353C9.8999 94.1907 11.2347 92.856 12.8793 92.856H76.4397C78.0843 92.856 79.4191 94.1907 79.4191 95.8353C79.4191 97.48 78.0843 98.8147 76.4397 98.8147Z" fill="#E1E8ED"/>
</svg>
