<svg width="122" height="122" viewBox="0 0 122 122" fill="none" xmlns="http://www.w3.org/2000/svg">
<path d="M111.833 122H13.5557C27.1112 122 23.7223 91.5001 23.7223 91.5001C23.7223 84.014 29.7918 40.6667 37.2779 40.6667H108.445C108.445 40.6667 122 40.6667 122 54.2223V111.833C122 111.833 122 122 111.833 122Z" fill="#99AAB5"/>
<path d="M101.667 111.833C101.667 122 111.833 122 111.833 122H10.1667C10.1667 122 0 122 0 108.444V13.5556C0 6.0695 6.0695 0 13.5556 0H88.1111C95.5972 0 101.667 6.0695 101.667 13.5556V111.833Z" fill="#CCD6DD"/>
<path d="M91.5001 67.7779C91.5001 69.6519 89.9853 71.1667 88.1112 71.1667H61.0001C59.1294 71.1667 57.6112 69.6519 57.6112 67.7779C57.6112 65.9038 59.1294 64.389 61.0001 64.389H88.1112C89.9853 64.389 91.5001 65.9038 91.5001 67.7779ZM91.5001 54.2223C91.5001 56.0964 89.9853 57.6112 88.1112 57.6112H61.0001C59.1294 57.6112 57.6112 56.0964 57.6112 54.2223C57.6112 52.3482 59.1294 50.8334 61.0001 50.8334H88.1112C89.9853 50.8334 91.5001 52.3482 91.5001 54.2223ZM91.5001 40.6667C91.5001 42.5408 89.9853 44.0556 88.1112 44.0556H61.0001C59.1294 44.0556 57.6112 42.5408 57.6112 40.6667C57.6112 38.7927 59.1294 37.2779 61.0001 37.2779H88.1112C89.9853 37.2779 91.5001 38.7927 91.5001 40.6667ZM91.5001 81.3334C91.5001 83.2075 89.9853 84.7223 88.1112 84.7223H13.5556C11.685 84.7223 10.1667 83.2075 10.1667 81.3334C10.1667 79.4594 11.685 77.9445 13.5556 77.9445H88.1112C89.9853 77.9445 91.5001 79.4594 91.5001 81.3334ZM91.5001 94.889C91.5001 96.763 89.9853 98.2779 88.1112 98.2779H13.5556C11.685 98.2779 10.1667 96.763 10.1667 94.889C10.1667 93.0149 11.685 91.5001 13.5556 91.5001H88.1112C89.9853 91.5001 91.5001 93.0149 91.5001 94.889ZM91.5001 108.445C91.5001 110.319 89.9853 111.833 88.1112 111.833H13.5556C11.685 111.833 10.1667 110.319 10.1667 108.445C10.1667 106.57 11.685 105.056 13.5556 105.056H88.1112C89.9853 105.056 91.5001 106.57 91.5001 108.445ZM84.7223 30.5001C84.7223 30.5001 91.5001 30.5001 91.5001 23.7223V16.9445C91.5001 16.9445 91.5001 10.1667 84.7223 10.1667H16.9445C16.9445 10.1667 10.1667 10.1667 10.1667 16.9445V23.7223C10.1667 23.7223 10.1667 30.5001 16.9445 30.5001H84.7223Z" fill="#99AAB5"/>
<path d="M44.0556 71.1667C44.0556 71.1667 50.8334 71.1667 50.8334 64.3889V44.0556C50.8334 44.0556 50.8334 37.2778 44.0556 37.2778H16.9445C16.9445 37.2778 10.1667 37.2778 10.1667 44.0556V64.3889C10.1667 64.3889 10.1667 71.1667 16.9445 71.1667H44.0556Z" fill="#55ACEE"/>
</svg>
