<svg width="52" height="52" viewBox="0 0 52 52" fill="none" xmlns="http://www.w3.org/2000/svg">
<path fill-rule="evenodd" clip-rule="evenodd" d="M34.6667 26C34.6667 28.2986 33.7536 30.503 32.1283 32.1283C30.503 33.7536 28.2986 34.6667 26 34.6667C23.7015 34.6667 21.4971 33.7536 19.8718 32.1283C18.2465 30.503 17.3334 28.2986 17.3334 26C17.3334 23.7015 18.2465 21.4971 19.8718 19.8718C21.4971 18.2465 23.7015 17.3334 26 17.3334C28.2986 17.3334 30.503 18.2465 32.1283 19.8718C33.7536 21.4971 34.6667 23.7015 34.6667 26V26ZM31.4167 26C31.4167 27.4366 30.846 28.8144 29.8302 29.8302C28.8144 30.846 27.4366 31.4167 26 31.4167C24.5635 31.4167 23.1857 30.846 22.1699 29.8302C21.1541 28.8144 20.5834 27.4366 20.5834 26C20.5834 24.5635 21.1541 23.1857 22.1699 22.1699C23.1857 21.1541 24.5635 20.5834 26 20.5834C27.4366 20.5834 28.8144 21.1541 29.8302 22.1699C30.846 23.1857 31.4167 24.5635 31.4167 26Z" fill="#722845"/>
<path fill-rule="evenodd" clip-rule="evenodd" d="M26 2.16663C25.4193 2.16663 24.843 2.1883 24.2732 2.2273C22.62 2.34646 21.359 3.56413 20.9972 5.05263L20.2345 8.1943C20.1912 8.3633 20.0395 8.56696 19.747 8.67096C19.2113 8.86513 18.6849 9.0842 18.1697 9.32746C17.888 9.45746 17.6367 9.4228 17.4872 9.3318L14.7268 7.65046C13.4182 6.85313 11.6675 6.88346 10.4152 7.96896C9.542 8.72296 8.72516 9.54196 7.969 10.413C6.88566 11.6675 6.85316 13.4181 7.6505 14.7246L9.33183 17.4871C9.42283 17.6366 9.45966 17.888 9.3275 18.1696C9.08483 18.6831 8.866 19.2096 8.67316 19.747C8.56483 20.0395 8.36333 20.1933 8.19433 20.2345L5.05266 20.9971C3.56416 21.359 2.3465 22.62 2.22733 24.2731C2.14493 25.4229 2.14493 26.577 2.22733 27.7268C2.3465 29.38 3.56416 30.641 5.05266 31.0028L8.19433 31.7655C8.36333 31.8088 8.567 31.9605 8.671 32.253C8.866 32.7903 9.08483 33.3168 9.3275 33.8325C9.4575 34.112 9.42283 34.3633 9.33183 34.5128L7.6505 37.2731C6.85316 38.5818 6.8835 40.3325 7.969 41.5848C8.723 42.458 9.542 43.2748 10.413 44.031C11.6675 45.1143 13.4182 45.1468 14.7247 44.3495L17.4872 42.6681C17.6367 42.5771 17.888 42.5403 18.1697 42.6725C18.6832 42.9151 19.2097 43.134 19.747 43.3268C20.0395 43.4351 20.1933 43.6366 20.2345 43.8056L20.9972 46.9473C21.359 48.4358 22.62 49.6535 24.2732 49.7705C25.4229 49.853 26.5771 49.853 27.7268 49.7705C29.38 49.6535 30.641 48.4358 31.0028 46.9473L31.7655 43.8056C31.8088 43.6366 31.9605 43.433 32.253 43.329C32.7903 43.134 33.3168 42.9151 33.8325 42.6725C34.112 42.5425 34.3633 42.5771 34.5128 42.6681L37.2732 44.3495C38.5818 45.1468 40.3325 45.1165 41.5848 44.031C42.458 43.277 43.2748 42.458 44.031 41.587C45.1143 40.3325 45.1468 38.5818 44.3495 37.2753L42.6682 34.5128C42.5772 34.3633 42.5403 34.112 42.6725 33.8303C42.9152 33.3168 43.134 32.7903 43.3268 32.253C43.4352 31.9605 43.6367 31.8066 43.8057 31.7655L46.9473 31.0028C48.4358 30.641 49.6535 29.38 49.7705 27.7268C49.8531 26.5771 49.8531 25.4229 49.7705 24.2731C49.6535 22.62 48.4358 21.359 46.9473 20.9971L43.8057 20.2345C43.6367 20.1911 43.433 20.0395 43.329 19.747C43.1348 19.2113 42.9157 18.6849 42.6725 18.1696C42.5425 17.888 42.5772 17.6366 42.6682 17.4871L44.3495 14.7268C45.1468 13.4181 45.1165 11.6675 44.031 10.4151C43.277 9.54196 42.458 8.72513 41.587 7.96896C40.3325 6.88563 38.5818 6.85313 37.2753 7.65046L34.5128 9.3318C34.3633 9.4228 34.112 9.45963 33.8303 9.32746C33.315 9.08498 32.7886 8.86663 32.253 8.67313C31.9605 8.5648 31.8067 8.3633 31.7655 8.1943L31.0028 5.05263C30.641 3.56413 29.38 2.34646 27.7268 2.2273C27.1521 2.18649 26.5761 2.16625 26 2.16663V2.16663ZM24.505 5.4708C25.5004 5.39943 26.4996 5.39943 27.495 5.4708C27.6142 5.47946 27.7875 5.57913 27.846 5.81746L28.6065 8.95913C28.938 10.3198 29.9628 11.2991 31.148 11.7281C31.5922 11.8885 32.0255 12.0683 32.448 12.2676C33.0384 12.5532 33.6904 12.688 34.3456 12.66C35.0008 12.632 35.6389 12.4421 36.2028 12.1073L38.9653 10.426C39.1755 10.296 39.3683 10.348 39.4593 10.426C40.2133 11.0803 40.9197 11.7866 41.574 12.5406C41.652 12.6316 41.704 12.8223 41.574 13.0346L39.8927 15.795C39.5575 16.3591 39.3673 16.9976 39.3394 17.6533C39.3114 18.3089 39.4464 18.9613 39.7323 19.552C39.9317 19.9745 40.1115 20.4078 40.2697 20.852C40.6987 22.0371 41.6823 23.062 43.0387 23.3913L46.1803 24.1561C46.4208 24.2125 46.5205 24.3858 46.5292 24.505C46.6005 25.5004 46.6005 26.4996 46.5292 27.495C46.5205 27.6141 46.4208 27.7875 46.1825 27.846L43.0408 28.6065C42.4053 28.7685 41.8198 29.0854 41.3367 29.5289C40.8535 29.9724 40.4876 30.5286 40.2718 31.148C40.1117 31.5895 39.931 32.0233 39.7302 32.448C39.4449 33.0385 39.3105 33.6906 39.3389 34.3458C39.3672 35.0011 39.5575 35.6391 39.8927 36.2028L41.574 38.9653C41.704 39.1755 41.652 39.3683 41.574 39.4593C40.921 40.2142 40.2143 40.921 39.4593 41.574C39.3683 41.652 39.1777 41.704 38.9653 41.574L36.2028 39.8926C35.6389 39.5578 35.0008 39.3679 34.3456 39.3399C33.6904 39.3119 33.0384 39.4467 32.448 39.7323C32.0233 39.9316 31.5895 40.1109 31.148 40.2696C30.5291 40.4857 29.9733 40.8517 29.5302 41.3349C29.0871 41.818 28.7705 42.4034 28.6087 43.0386L27.8438 46.1803C27.7875 46.4208 27.6142 46.5205 27.495 46.5291C26.4996 46.6005 25.5004 46.6005 24.505 46.5291C24.3858 46.5205 24.2125 46.4208 24.154 46.1825L23.3935 43.0408C23.2314 42.4053 22.9145 41.8198 22.471 41.3366C22.0276 40.8534 21.4713 40.4876 20.852 40.2718C20.4104 40.1117 19.9766 39.9309 19.552 39.7301C18.9611 39.4445 18.3087 39.3099 17.653 39.3382C16.9974 39.3666 16.359 39.5571 15.795 39.8926L13.0347 41.574C12.8245 41.704 12.6317 41.652 12.5407 41.574C11.7857 40.9209 11.079 40.2142 10.426 39.4593C10.348 39.3683 10.296 39.1776 10.426 38.9653L12.1073 36.2028C12.4422 35.6389 12.6321 35.0008 12.66 34.3456C12.688 33.6903 12.5532 33.0384 12.2677 32.448C12.0677 32.0233 11.8876 31.5895 11.7282 31.148C11.5123 30.5293 11.1466 29.9737 10.6639 29.5306C10.1811 29.0875 9.59621 28.7708 8.96133 28.6086L5.81966 27.8438C5.57916 27.7875 5.4795 27.6141 5.47083 27.495C5.39946 26.4996 5.39946 25.5004 5.47083 24.505C5.4795 24.3858 5.57916 24.2125 5.8175 24.154L8.95916 23.3935C9.59468 23.2314 10.1802 22.9145 10.6633 22.471C11.1465 22.0275 11.5124 21.4713 11.7282 20.852C11.8876 20.4105 12.0677 19.9767 12.2677 19.552C12.5536 18.9613 12.6886 18.3089 12.6606 17.6533C12.6326 16.9976 12.4425 16.3591 12.1073 15.795L10.426 13.0346C10.296 12.8245 10.348 12.6316 10.426 12.5406C11.0803 11.7866 11.7867 11.0803 12.5407 10.426C12.6317 10.348 12.8223 10.296 13.0347 10.426L15.795 12.1073C16.3592 12.4425 16.9977 12.6326 17.6533 12.6606C18.309 12.6886 18.9613 12.5536 19.552 12.2676C19.9767 12.0676 20.4105 11.8876 20.852 11.7281C21.4707 11.5122 22.0263 11.1466 22.4694 10.6638C22.9124 10.1811 23.2292 9.59618 23.3913 8.9613L24.1562 5.81963C24.2125 5.57913 24.3858 5.47946 24.505 5.4708V5.4708Z" fill="#722845"/>
</svg>
