<svg width="170" height="139" viewBox="0 0 170 139" fill="none" xmlns="http://www.w3.org/2000/svg">
<path d="M170 16.926C163.745 19.704 157.023 21.5815 149.968 22.4262C157.17 18.1032 162.699 11.2576 165.303 3.10117C158.457 7.16998 150.967 10.0367 143.156 11.5775C136.794 4.78912 127.73 0.546631 117.698 0.546631C98.436 0.546631 82.8192 16.1865 82.8192 35.4762C82.8192 38.2143 83.128 40.8799 83.7223 43.4371C54.736 41.9799 29.0368 28.074 11.8343 6.94063C8.8327 12.0996 7.11277 18.1005 7.11277 24.5012C7.11277 36.6201 13.2706 47.3112 22.6286 53.5755C17.09 53.4017 11.6732 51.9035 6.83055 49.2059C6.82855 49.3523 6.82855 49.4986 6.82855 49.6456C6.82855 66.5696 18.8507 80.6878 34.8055 83.8968C29.6696 85.2957 24.2823 85.5004 19.0553 84.4953C23.4932 98.3727 36.374 108.471 51.6355 108.754C39.699 118.122 24.66 123.707 8.32004 123.707C5.50441 123.707 2.72863 123.541 0 123.218C15.4348 133.129 33.7676 138.912 53.4637 138.912C117.617 138.912 152.697 85.6858 152.697 39.5272C152.697 38.0121 152.664 36.5057 152.596 35.008C159.424 30.0644 165.318 23.9413 170 16.926Z" fill="#55ACEE"/>
</svg>
