<svg width="51" height="51" viewBox="0 0 51 51" fill="none" xmlns="http://www.w3.org/2000/svg">
<path d="M19.125 31.875C18.7047 31.875 18.2939 31.9996 17.9444 32.2331C17.595 32.4666 17.3226 32.7985 17.1618 33.1868C17.0009 33.5751 16.9588 34.0024 17.0408 34.4146C17.1228 34.8268 17.3252 35.2054 17.6224 35.5026C17.9196 35.7998 18.2982 36.0022 18.7104 36.0842C19.1226 36.1662 19.5499 36.1241 19.9382 35.9632C20.3265 35.8024 20.6584 35.53 20.8919 35.1806C21.1254 34.8311 21.25 34.4203 21.25 34C21.25 33.4364 21.0261 32.8959 20.6276 32.4974C20.2291 32.0989 19.6886 31.875 19.125 31.875ZM4.25 29.75C3.68641 29.75 3.14591 29.9739 2.7474 30.3724C2.34888 30.7709 2.125 31.3114 2.125 31.875V36.125C2.125 36.6886 2.34888 37.2291 2.7474 37.6276C3.14591 38.0261 3.68641 38.25 4.25 38.25C4.81359 38.25 5.35409 38.0261 5.7526 37.6276C6.15112 37.2291 6.375 36.6886 6.375 36.125V31.875C6.375 31.3114 6.15112 30.7709 5.7526 30.3724C5.35409 29.9739 4.81359 29.75 4.25 29.75ZM46.75 29.75C46.1864 29.75 45.6459 29.9739 45.2474 30.3724C44.8489 30.7709 44.625 31.3114 44.625 31.875V36.125C44.625 36.6886 44.8489 37.2291 45.2474 37.6276C45.6459 38.0261 46.1864 38.25 46.75 38.25C47.3136 38.25 47.8541 38.0261 48.2526 37.6276C48.6511 37.2291 48.875 36.6886 48.875 36.125V31.875C48.875 31.3114 48.6511 30.7709 48.2526 30.3724C47.8541 29.9739 47.3136 29.75 46.75 29.75ZM36.125 14.875H27.625V12.155C28.2673 11.7842 28.8014 11.2517 29.1742 10.6105C29.547 9.96928 29.7455 9.24168 29.75 8.5C29.75 7.37283 29.3022 6.29183 28.5052 5.4948C27.7082 4.69777 26.6272 4.25 25.5 4.25C24.3728 4.25 23.2918 4.69777 22.4948 5.4948C21.6978 6.29183 21.25 7.37283 21.25 8.5C21.2545 9.24168 21.453 9.96928 21.8258 10.6105C22.1986 11.2517 22.7327 11.7842 23.375 12.155V14.875H14.875C13.1842 14.875 11.5627 15.5467 10.3672 16.7422C9.17165 17.9377 8.5 19.5592 8.5 21.25V40.375C8.5 42.0658 9.17165 43.6873 10.3672 44.8828C11.5627 46.0784 13.1842 46.75 14.875 46.75H36.125C37.8158 46.75 39.4373 46.0784 40.6328 44.8828C41.8284 43.6873 42.5 42.0658 42.5 40.375V21.25C42.5 19.5592 41.8284 17.9377 40.6328 16.7422C39.4373 15.5467 37.8158 14.875 36.125 14.875ZM29.155 19.125L28.0925 23.375H22.9075L21.845 19.125H29.155ZM38.25 40.375C38.25 40.9386 38.0261 41.4791 37.6276 41.8776C37.2291 42.2761 36.6886 42.5 36.125 42.5H14.875C14.3114 42.5 13.7709 42.2761 13.3724 41.8776C12.9739 41.4791 12.75 40.9386 12.75 40.375V21.25C12.75 20.6864 12.9739 20.1459 13.3724 19.7474C13.7709 19.3489 14.3114 19.125 14.875 19.125H17.4675L19.125 26.01C19.2413 26.4815 19.5157 26.8989 19.9023 27.1927C20.289 27.4866 20.7646 27.6391 21.25 27.625H29.75C30.2354 27.6391 30.711 27.4866 31.0977 27.1927C31.4843 26.8989 31.7587 26.4815 31.875 26.01L33.5325 19.125H36.125C36.6886 19.125 37.2291 19.3489 37.6276 19.7474C38.0261 20.1459 38.25 20.6864 38.25 21.25V40.375ZM31.875 31.875C31.4547 31.875 31.0439 31.9996 30.6944 32.2331C30.345 32.4666 30.0726 32.7985 29.9118 33.1868C29.7509 33.5751 29.7088 34.0024 29.7908 34.4146C29.8728 34.8268 30.0752 35.2054 30.3724 35.5026C30.6696 35.7998 31.0482 36.0022 31.4604 36.0842C31.8726 36.1662 32.2999 36.1241 32.6882 35.9632C33.0765 35.8024 33.4084 35.53 33.6419 35.1806C33.8754 34.8311 34 34.4203 34 34C34 33.4364 33.7761 32.8959 33.3776 32.4974C32.9791 32.0989 32.4386 31.875 31.875 31.875Z" fill="#722845"/>
</svg>
